<?xml version="1.0" standalone="no"?><!DOCTYPE svg PUBLIC "-//W3C//DTD SVG 1.1//EN"
        "http://www.w3.org/Graphics/SVG/1.1/DTD/svg11.dtd">
<svg t="1675145073459" class="icon" viewBox="0 0 1106 1024" version="1.1" xmlns="http://www.w3.org/2000/svg" p-id="2130"
     width="21.6015625" height="20">
    <path d="M793.6 435.2m-25.6 0a25.6 25.6 0 1 0 51.2 0 25.6 25.6 0 1 0-51.2 0Z" fill="#78BDCC" p-id="2131"></path>
    <path d="M1054.72 256H716.8l-75.093333-75.093333c-17.066667-17.066667-40.96-27.306667-64.853334-27.306667H102.4c-56.32 0-102.4 46.08-102.4 102.4v512c0 56.32 46.08 102.4 102.4 102.4h745.813333c44.373333 0 83.626667-29.013333 97.28-69.973333L1104.213333 324.266667c10.24-34.133333-13.653333-68.266667-49.493333-68.266667zM51.2 256c0-29.013333 22.186667-51.2 51.2-51.2h474.453333c10.24 0 22.186667 5.12 29.013334 11.946667l39.253333 39.253333H363.52c-35.84 0-66.56 20.48-83.626667 51.2-15.36 30.72-47.786667 51.2-83.626666 51.2H51.2v-102.4z m844.8 527.36c-6.826667 22.186667-25.6 35.84-47.786667 35.84H102.4c-29.013333 0-51.2-22.186667-51.2-51.2V409.6h146.773333c54.613333 0 104.106667-30.72 128-80.213333 6.826667-13.653333 20.48-22.186667 37.546667-22.186667h691.2l-158.72 476.16z"
          fill="#335056" p-id="2132"></path>
    <path d="M793.6 512c42.666667 0 76.8-34.133333 76.8-76.8S836.266667 358.4 793.6 358.4 716.8 392.533333 716.8 435.2s34.133333 76.8 76.8 76.8z m0-102.4c13.653333 0 25.6 11.946667 25.6 25.6s-11.946667 25.6-25.6 25.6-25.6-11.946667-25.6-25.6 11.946667-25.6 25.6-25.6z"
          fill="#335056" p-id="2133"></path>
    <path d="M197.973333 358.4c35.84 0 66.56-20.48 83.626667-51.2 15.36-30.72 47.786667-51.2 83.626667-51.2h279.893333l-39.253333-39.253333c-8.533333-6.826667-18.773333-11.946667-30.72-11.946667H102.4c-29.013333 0-51.2 22.186667-51.2 51.2v102.4h146.773333z"
          fill="#78BDCC" p-id="2134"></path>
</svg>