<?xml version="1.0" standalone="no"?><!DOCTYPE svg PUBLIC "-//W3C//DTD SVG 1.1//EN"
        "http://www.w3.org/Graphics/SVG/1.1/DTD/svg11.dtd">
<svg t="1675145893224" class="icon" viewBox="0 0 1167 1024" version="1.1" xmlns="http://www.w3.org/2000/svg" p-id="5352"
     width="22.79296875" height="20">
    <path d="M835.19488 606.90432l-2.12992 2.31424a30.72 30.72 0 0 0 45.2608 41.45152l274.20672-270.17216 2.49856-2.6624a51.2 51.2 0 0 0-1.88416-69.65248L872.448 21.83168l-2.31424-2.12992a30.72 30.72 0 0 0-41.12384 1.69984l-2.12992 2.31424a30.72 30.72 0 0 0 1.69984 41.12384l231.64928 236.25728H389.87776C177.37728 301.11744 4.17792 461.0048 4.17792 659.51744c0 196.32128 169.3696 354.85696 378.63424 358.35904l7.0656 0.06144h576.2048a30.72 30.72 0 0 0 2.9696-61.29664l-2.9696-0.14336H389.87776c-179.6096 0-324.25984-133.5296-324.25984-296.96 0-161.3824 141.04576-293.62176 317.5424-296.89856l6.71744-0.06144 693.32992-0.02048-248.0128 244.36736z"
          p-id="5353"></path>
</svg>